<?xml version="1.0" standalone="no"?>
<!DOCTYPE svg PUBLIC "-//W3C//DTD SVG 20010904//EN" "http://www.w3.org/TR/2001/REC-SVG-20010904/DTD/svg10.dtd">
<!-- Created using Krita: https://krita.org -->
<svg xmlns="http://www.w3.org/2000/svg" 
    xmlns:xlink="http://www.w3.org/1999/xlink"
    xmlns:krita="http://krita.org/namespaces/svg/krita"
    xmlns:sodipodi="http://sodipodi.sourceforge.net/DTD/sodipodi-0.dtd"
    width="737.28pt"
    height="737.28pt"
    viewBox="0 0 737.28 737.28">
<defs/>
<path id="shape0" transform="matrix(0.999999920527145 0 0 0.999999920527145 79.1035996600225 330.517272747111)" fill="#333333" fill-rule="evenodd" stroke="#333333" stroke-width="0.1296" stroke-linecap="square" stroke-linejoin="bevel" d="M0.0910756 0L0.0910756 8.64L0.0910756 8.64L48.179 8.73C55.7686 11.25 59.5634 15.69 59.5634 22.05C59.5634 28.41 56.2544 33.03 49.6362 35.91L18.5794 36.09L18.3973 62.37L60.5653 62.37L60.292 62.28C61.8707 61.44 62.7814 60.15 63.0243 58.41C63.2672 56.67 62.1439 55.32 59.6545 54.36L27.3227 54.36L27.1405 45.36L27.1405 45.54L61.7492 45.63C68.4888 47.07 72.4051 50.88 73.498 57.06C74.5909 63.24 71.1908 68.31 63.2975 72.27L8.83433 72.36L8.83433 72.36L8.74326 26.64L45.811 26.55C48.2397 25.95 49.5451 24.6 49.7273 22.5C49.9094 20.4 48.5736 18.99 45.7199 18.27L45.7199 18.18L45.6289 18.36L0 18.18L0.182151 81L0.273227 80.55L65.4833 80.64L65.3012 80.64C76.291 77.76 82.0287 70.86 82.5145 59.94C83.2431 43.56 68.7621 37.26 63.2975 36.63C57.833 36 67.2138 40.05 68.4888 22.68C69.3389 11.1 62.9636 3.6 49.363 0.18Z" sodipodi:nodetypes="cccczccccczccccczccccczcccccccczzzcc"/><path id="shape0" transform="translate(162.128028460371, 330.703649227292)" fill="#333333" fill-rule="evenodd" stroke="#333333" stroke-width="0.3888" stroke-linecap="square" stroke-linejoin="bevel" d="M80.3241 0L80.3241 8.14455L80.3241 8.1L80.2809 8.1L80.2809 8.1L80.2809 8.1891L80.1945 8.23365L80.1945 8.23365L80.1945 8.23365L80.2377 8.1891L80.2377 8.1891L80.2809 8.1891L80.2809 8.1891C80.3434 8.05991 65.7788 8.07607 36.587 8.23759C19.9321 11.8527 10.4587 21.7523 8.16683 37.9364C4.72897 62.2124 31.2641 72.76 36.7592 72.6746C40.4226 72.6176 52.1251 72.6114 71.8667 72.6561L71.9186 72.567C72.0077 72.5967 72.0083 69.2514 71.9206 62.5311L35.9696 62.4181C24.6321 57.9976 18.6954 51.5428 18.1596 43.0536C17.3559 30.3199 27.1208 17.4586 39.0525 17.6447C47.007 17.7688 60.8377 17.8074 80.5446 17.7604L80.3484 39.9908L71.9849 40.0298L71.9939 26.3975L38.2894 26.282C38.3313 26.012 26.7181 27.5392 26.0792 39.9561C25.4402 52.373 35.8334 53.5098 36.6022 53.644C37.1148 53.7334 51.7106 53.758 80.3897 53.7176L80.323 80.4926L32.9885 80.3257L32.9885 80.3257C32.9562 80.8045 0.874083 74.0476 0.0162124 41.0791C-0.841658 8.11069 32.6187 0.114308 35.5513 0.116255C37.5063 0.117552 52.4305 0.0788008 80.3241 0Z" sodipodi:nodetypes="cccccccccccccczzcccczzccccczzcccczcc"/><path id="shape1" transform="translate(243.474743447067, 331.037518274209)" fill="#333333" fill-rule="evenodd" stroke="#333333" stroke-width="0.3888" stroke-linecap="square" stroke-linejoin="bevel" d="M26.5929 1.92799L26.6485 10.3304C14.4607 16.2238 8.08534 25.9785 7.52238 39.5944C6.95942 53.2104 13.612 63.5238 27.4801 70.5346C38.684 75.2094 50.3333 72.9478 62.4279 63.7497C69.5802 56.8263 72.8603 48.1105 72.268 37.6025C71.3797 21.8404 60.3607 9.99626 43.5313 7.96008C43.4389 8.08062 43.4783 17.9614 43.6498 37.6025C43.425 37.6025 40.4409 42.6342 36.0378 37.6025C35.8593 37.6025 35.8044 33.3909 35.8733 24.9677C28.4016 27.4818 24.5423 32.5337 24.2954 40.1232C23.9249 51.5075 33.6424 55.3412 39.6729 55.7057C45.7033 56.0701 50.4752 52.2501 53.0003 48.785C55.5255 45.3199 57.2412 37.8933 53.6424 31.6823C53.6424 31.6526 53.5844 27.9778 53.4683 20.658C58.9832 25.4623 62.1737 30.5647 63.0399 35.9653C64.3391 44.0662 60.1496 62.3752 40.5706 63.4436C20.9916 64.5119 16.6853 44.5277 16.4639 39.623C16.2425 34.7183 19.7232 21.3547 35.3385 17.1814L36.278 16.2825L36.2465 0.172059C46.2931 -0.753684 55.9337 2.05621 65.1684 8.60174C74.4031 15.1473 79.4993 25.8022 80.4572 40.5664C80.2747 41.1936 79.001 59.6445 69.0941 67.8271C59.1872 76.0096 56.956 79.159 39.5718 79.9575C22.1876 80.7559 8.80491 66.7016 7.2689 63.8251C5.73288 60.9486 -3.50937 49.5107 1.44705 27.9112C6.26053 14.835 14.6425 6.17396 26.5929 1.92799Z" sodipodi:nodetypes="cczcczcccczzzcczzzccczczzzcc"/><path id="shape2" transform="translate(324.808564345483, 330.906669842723)" fill="#333333" fill-rule="evenodd" stroke="#333333" stroke-width="0.3888" stroke-linecap="square" stroke-linejoin="bevel" d="M18.7261 0.0552334L30.4318 0L54.1571 23.8138L54.1368 0.639222L80.0568 0.656426C80.1159 0.896466 80.174 27.3264 80.231 79.9461L73.6126 80.0754C73.5262 80.0753 51.4155 57.8756 7.28038 13.4763L7.60614 72.6525C7.66376 72.6228 11.2494 72.5806 18.363 72.5259L18.0673 37.7778L26.028 46.1165L26.2731 79.8185L0.0420203 79.9388C0.128521 79.7876 0.114514 53.3428 0 0.604187L5.67651 0.559355C5.70549 0.650875 27.8596 22.6559 72.1388 66.5744L72.2191 7.85258L62.1881 7.84592L62.1607 43.1237Z" sodipodi:nodetypes="ccccccccccccccccccccc"/><path id="shape3" transform="translate(406.240359924089, 331.437395976102)" fill="#333333" fill-rule="evenodd" stroke="#333333" stroke-width="0.3888" stroke-linecap="square" stroke-linejoin="bevel" d="M0.258712 0L46.9673 0.0936887C46.3909 0.254292 59.6298 1.28006 68.7259 11.7217C77.822 22.1634 80.3484 32.6694 80.5399 38.5861C80.7315 44.5028 76.3913 59.7716 70.3386 66.3886C64.2859 73.0056 53.652 78.4684 45.9535 79.4198L0.143652 79.3875L0.176652 18.1649C0.176736 18.0389 15.3037 17.986 45.5574 18.006C53.1071 19.7959 58.4062 25.3159 61.4548 34.5661C66.0276 48.4413 49.5232 62.1077 44.8194 61.3429C44.738 61.3008 35.6594 61.2948 17.5837 61.3248L17.7353 35.4248L26.0686 35.3674L26.1177 53.3749L43.7495 53.3866C50.8386 50.0005 54.088 45.1247 53.4976 38.7591C52.9071 32.3935 49.4725 27.9371 43.1938 25.3898L7.62467 25.6182C7.4919 25.7039 7.4601 41.1462 7.52926 71.9453L43.929 72.0382C55.8155 69.1203 64.0506 63.2069 68.6345 54.2978C68.7569 54.0402 75.0593 39.3474 68.8364 26.2329C68.5839 26.2932 65.6114 12.8601 45.2462 7.43974C45.0345 7.3976 29.9524 7.38759 0 7.40971Z" sodipodi:nodetypes="cczzzcccczcccccczccccccccc"/><path id="shape4" transform="translate(487.86952428996, 331.419311136387)" fill="#333333" fill-rule="evenodd" stroke="#333333" stroke-width="0.72" stroke-linecap="square" stroke-linejoin="bevel" d="M0 25.2425L15.7867 25.253L15.731 17.1656L15.7308 17.4864L7.20207 17.4177L7.14926 7.23726L25.732 7.31323L25.7525 72.2257L15.6339 72.1553L15.6578 36.1353L7.76652 36.0664L7.80148 79.2777L33.5755 79.2949L33.7554 0L0.0262743 0.23217Z" sodipodi:nodetypes="cccccccccccccccc"/><path id="shape5" transform="translate(523.093456809106, 331.360922513972)" fill="#333333" fill-rule="evenodd" stroke="#333333" stroke-width="0.72" stroke-linecap="square" stroke-linejoin="bevel" d="M79.997 0.151953L80.0354 7.44198L36.1157 7.41418C18.7788 11.761 9.44516 21.9316 8.11491 37.9259C8.30663 38.2435 2.94956 62.2321 35.7752 71.7388C35.6041 71.7807 47.6314 71.9166 71.8571 72.1465L71.6076 61.4529L35.9042 61.4292C36.2254 61.495 19.4753 58.7404 17.7763 41.1785C17.9063 40.8598 16.0232 24.6323 33.9646 18.2809C34.2578 18.3231 49.6153 18.3547 80.0371 18.3758L79.8278 39.1839L71.9345 39.1156L72.0169 25.3695L37.9021 25.2839C37.7743 25.2851 28.0222 27.5009 25.6687 38.7655C26.05 38.7695 23.5754 48.499 36.2307 53.5992C36.226 53.4724 50.8414 53.4626 80.0769 53.5698L79.9351 79.2769L31.6952 79.2449C10.8565 72.6526 0.293558 59.9657 0.00650475 41.1843C-0.424076 13.0122 20.6262 3.83988 32.1544 0.0729296C32.1545 -0.0458703 48.102 -0.0195294 79.997 0.151953Z" sodipodi:nodetypes="cccccccccccccccccccczcc"/><path id="shape6" transform="translate(604.286510670833, 331.513345037684)" fill="#333333" fill-rule="evenodd" stroke="#333333" stroke-width="0.72" stroke-linecap="square" stroke-linejoin="bevel" d="M0.197847 0L80.116 0.055747L80.0575 25.253L47.165 25.2798C46.941 25.5028 38.376 26.3535 34.7305 38.5011C34.6753 38.5289 34.6549 49.7033 34.6694 72.0243L45.5126 72.0314L45.6223 35.8079L52.7848 35.8126L52.887 79.3268L27.5074 79.2663L27.4016 35.2567C27.444 35.3881 28.9913 21.7568 46.136 17.4468C46.3434 17.2985 55.2532 17.2592 72.8653 17.3291L72.9136 7.02507L8.0281 7.207L8.0215 17.1538L26.9171 17.2554C23.8178 19.7422 21.6249 22.4256 20.3385 25.3056C20.4307 25.3057 13.6512 25.2863 0 25.2476Z" sodipodi:nodetypes="ccccccccccccccccccccc"/>
</svg>
