<?xml version="1.0" standalone="no"?>
<!DOCTYPE svg PUBLIC "-//W3C//DTD SVG 20010904//EN" "http://www.w3.org/TR/2001/REC-SVG-20010904/DTD/svg10.dtd">
<!-- Created using Krita: https://krita.org -->
<svg xmlns="http://www.w3.org/2000/svg" 
    xmlns:xlink="http://www.w3.org/1999/xlink"
    xmlns:krita="http://krita.org/namespaces/svg/krita"
    xmlns:sodipodi="http://sodipodi.sourceforge.net/DTD/sodipodi-0.dtd"
    width="76.2pt"
    height="72pt"
    viewBox="0 0 76.2 72">
<defs/>
<path id="shape0" transform="matrix(0.999999852913883 0 0 0.999999852913883 -0.0690446207231044 -0.149999999999999)" fill="#333333" fill-rule="evenodd" stroke="#333333" stroke-width="0.1296" stroke-linecap="square" stroke-linejoin="bevel" d="M0.0841551 0L0.0841551 7.73195L0.0841551 7.73195L44.5181 7.81249C51.531 10.0676 55.0374 14.041 55.0374 19.7326C55.0374 25.4242 51.9799 29.5586 45.8645 32.1359L17.1676 32.297L16.9994 55.815L55.9632 55.815L55.7107 55.7345C57.1694 54.9828 58.0109 53.8283 58.2353 52.2712C58.4598 50.7141 57.4218 49.506 55.1216 48.6469L25.2466 48.6469L25.0782 40.5927L25.0782 40.7538L57.0571 40.8344C63.2846 42.123 66.9033 45.5326 67.9132 51.0631C68.923 56.5936 65.7813 61.1307 58.4878 64.6745L8.16304 64.7551L8.16304 64.7551L8.07889 23.8402L42.33 23.7596C44.5742 23.2227 45.7804 22.0146 45.9487 20.1353C46.117 18.256 44.8827 16.9942 42.2458 16.3499L42.2458 16.2693L42.1617 16.4304L0 16.2693L0.16831 72.487L0.252466 72.0843L60.5075 72.1649L60.3392 72.1649C70.494 69.5876 75.7957 63.4127 76.2446 53.6404C76.9178 38.9819 63.5371 33.344 58.4878 32.7802C53.4385 32.2165 62.1065 35.8408 63.2846 20.2964C64.0701 9.93341 58.1792 3.22165 45.6121 0.161082Z" sodipodi:nodetypes="cccczccccczccccczccccczcccccccczzzcc"/>
</svg>
